<svg width="349" height="66" viewBox="0 0 349 66" fill="none" xmlns="http://www.w3.org/2000/svg">
<path d="M30.936 40.064H14.168L11.48 48H0.0239868L16.28 3.07201H28.952L45.208 48H33.624L30.936 40.064ZM28.12 31.616L22.552 15.168L17.048 31.616H28.12Z" fill="#F5F5F5"/>
<path d="M85.4195 12.288V48H74.4755V43.136C73.3662 44.7147 71.8515 45.9947 69.9315 46.976C68.0542 47.9147 65.9635 48.384 63.6595 48.384C60.9288 48.384 58.5182 47.7867 56.4275 46.592C54.3368 45.3547 52.7155 43.584 51.5635 41.28C50.4115 38.976 49.8355 36.2667 49.8355 33.152V12.288H60.7155V31.68C60.7155 34.0693 61.3342 35.9253 62.5715 37.248C63.8088 38.5707 65.4728 39.232 67.5635 39.232C69.6968 39.232 71.3822 38.5707 72.6195 37.248C73.8568 35.9253 74.4755 34.0693 74.4755 31.68V12.288H85.4195Z" fill="#F5F5F5"/>
<path d="M113.184 38.72V48H107.616C103.648 48 100.555 47.04 98.3365 45.12C96.1178 43.1573 95.0085 39.9787 95.0085 35.584V21.376H90.6565V12.288H95.0085V3.58401H105.952V12.288H113.12V21.376H105.952V35.712C105.952 36.7787 106.208 37.5467 106.72 38.016C107.232 38.4853 108.086 38.72 109.28 38.72H113.184Z" fill="#F5F5F5"/>
<path d="M135.536 48.512C132.038 48.512 128.88 47.7653 126.064 46.272C123.291 44.7787 121.094 42.6454 119.472 39.872C117.894 37.0987 117.104 33.856 117.104 30.144C117.104 26.4747 117.915 23.2533 119.536 20.48C121.158 17.664 123.376 15.5093 126.192 14.016C129.008 12.5227 132.166 11.776 135.664 11.776C139.163 11.776 142.32 12.5227 145.136 14.016C147.952 15.5093 150.171 17.664 151.792 20.48C153.414 23.2533 154.224 26.4747 154.224 30.144C154.224 33.8133 153.392 37.056 151.728 39.872C150.107 42.6454 147.867 44.7787 145.008 46.272C142.192 47.7653 139.035 48.512 135.536 48.512ZM135.536 39.04C137.627 39.04 139.398 38.272 140.848 36.736C142.342 35.2 143.088 33.0027 143.088 30.144C143.088 27.2853 142.363 25.088 140.912 23.552C139.504 22.016 137.755 21.248 135.664 21.248C133.531 21.248 131.76 22.016 130.352 23.552C128.944 25.0453 128.24 27.2427 128.24 30.144C128.24 33.0027 128.923 35.2 130.288 36.736C131.696 38.272 133.446 39.04 135.536 39.04Z" fill="#F5F5F5"/>
<path d="M187.998 40.064H171.23L168.542 48H157.086L173.342 3.07201H186.014L202.27 48H190.686L187.998 40.064ZM185.182 31.616L179.614 15.168L174.11 31.616H185.182Z" fill="#F5F5F5"/>
<path d="M218.162 0.640015V48H207.218V0.640015H218.162Z" fill="#F5F5F5"/>
<path d="M261.357 12.288V48H250.413V43.136C249.304 44.7147 247.789 45.9947 245.869 46.976C243.992 47.9147 241.901 48.384 239.597 48.384C236.866 48.384 234.456 47.7867 232.365 46.592C230.274 45.3547 228.653 43.584 227.501 41.28C226.349 38.976 225.773 36.2667 225.773 33.152V12.288H236.653V31.68C236.653 34.0693 237.272 35.9253 238.509 37.248C239.746 38.5707 241.41 39.232 243.501 39.232C245.634 39.232 247.32 38.5707 248.557 37.248C249.794 35.9253 250.413 34.0693 250.413 31.68V12.288H261.357Z" fill="#F5F5F5"/>
<path d="M282.786 11.776C285.303 11.776 287.501 12.288 289.378 13.312C291.298 14.336 292.77 15.68 293.794 17.344V12.288H304.738V47.936C304.738 51.2213 304.077 54.1867 302.754 56.832C301.474 59.52 299.49 61.6534 296.802 63.232C294.157 64.8107 290.85 65.6 286.882 65.6C281.591 65.6 277.303 64.3413 274.018 61.824C270.733 59.3493 268.855 55.9787 268.386 51.712H279.202C279.543 53.0774 280.354 54.144 281.634 54.912C282.914 55.7227 284.493 56.128 286.37 56.128C288.631 56.128 290.423 55.4667 291.746 54.144C293.111 52.864 293.794 50.7947 293.794 47.936V42.88C292.727 44.544 291.255 45.9094 289.378 46.976C287.501 48 285.303 48.512 282.786 48.512C279.842 48.512 277.175 47.7653 274.786 46.272C272.397 44.736 270.498 42.5813 269.09 39.808C267.725 36.992 267.042 33.7493 267.042 30.08C267.042 26.4107 267.725 23.1893 269.09 20.416C270.498 17.6427 272.397 15.5093 274.786 14.016C277.175 12.5227 279.842 11.776 282.786 11.776ZM293.794 30.144C293.794 27.4133 293.026 25.2587 291.49 23.68C289.997 22.1013 288.162 21.312 285.986 21.312C283.81 21.312 281.954 22.1013 280.418 23.68C278.925 25.216 278.178 27.3493 278.178 30.08C278.178 32.8107 278.925 34.9867 280.418 36.608C281.954 38.1867 283.81 38.976 285.986 38.976C288.162 38.976 289.997 38.1867 291.49 36.608C293.026 35.0294 293.794 32.8747 293.794 30.144Z" fill="#F5F5F5"/>
<path d="M310.479 30.08C310.479 26.4107 311.162 23.1893 312.527 20.416C313.935 17.6427 315.834 15.5093 318.223 14.016C320.613 12.5227 323.279 11.776 326.223 11.776C328.741 11.776 330.938 12.288 332.815 13.312C334.735 14.336 336.207 15.68 337.231 17.344V12.288H348.175V48H337.231V42.944C336.165 44.608 334.671 45.952 332.751 46.976C330.874 48 328.677 48.512 326.159 48.512C323.258 48.512 320.613 47.7653 318.223 46.272C315.834 44.736 313.935 42.5813 312.527 39.808C311.162 36.992 310.479 33.7493 310.479 30.08ZM337.231 30.144C337.231 27.4133 336.463 25.2587 334.927 23.68C333.434 22.1013 331.599 21.312 329.423 21.312C327.247 21.312 325.391 22.1013 323.855 23.68C322.362 25.216 321.615 27.3493 321.615 30.08C321.615 32.8107 322.362 34.9867 323.855 36.608C325.391 38.1867 327.247 38.976 329.423 38.976C331.599 38.976 333.434 38.1867 334.927 36.608C336.463 35.0294 337.231 32.8747 337.231 30.144Z" fill="#F5F5F5"/>
</svg>
